<?xml version="1.0" encoding="utf-8"?>
<svg version="1.1" xmlns="http://www.w3.org/2000/svg" xmlns:xlink="http://www.w3.org/1999/xlink" x="0" y="0"
	 viewBox="0 0 512 282" style="enable-background:new 0 0 512 282;">
<style type="text/css">
	.st0{opacity:0.12;enable-background:new    ;}
	.st1{fill:#1F9DB7;}
	.st2{fill:#931B1E;}
	.st3{fill:#2B3C4D;}
	.st4{fill:#006580;}
	.st5{fill:#E9F0F8;}
	.st6{fill:#EA4840;}
	.st7{fill:#62E1F1;}
	.st8{fill:#94ABBC;}
	.st9{fill:#2EB9D2;}
	.st10{fill:#065781;}
	.st11{fill:#52E29F;}
	.st12{fill:#27D27D;}
	.st13{fill:#FFE466;}
	.st14{fill:#FFC84B;}
	.st15{fill:#FF6666;}
	.st16{opacity:0.1;fill:#2B2A2A;enable-background:new    ;}
	.st17{fill:none;}
	.st18{fill:#9A9B9E;}
	.st19{fill:#595A5C;}
	.st20{fill:#B9C0C9;}
	.st21{fill:#232323;}
	.st22{fill:#686867;}
	.st23{fill:#6FCBD2;fill-opacity:0;}
	.st24{fill:#6D2F2F;}
	.st25{fill:#333232;}
	.st26{fill:#5FC6CA;fill-opacity:0;}
	.st27{fill:#232222;}
	.st28{opacity:0.1;fill:#2D2D2D;enable-background:new    ;}
	.st29{opacity:0.1;fill:#1D1E1E;enable-background:new    ;}
	.st30{fill:#332F2F;}
	.st31{fill:#2B2727;}
</style>
<g>
	<path class="st0" d="M237.4,253.9c-87.5,0-168.6,1-235.2,2.8c4.2,9,9,17.6,14.3,26c63.8,1.6,139.6,2.5,220.9,2.5
		c100.1,0,191.8-1.4,263-3.6c4.8-7.6,9.1-15.5,13-23.6C440.5,255.4,343.6,253.9,237.4,253.9L237.4,253.9z"/>
	<path class="st1" d="M266.5,109.6c-0.2-12.2-10.4-22-22.6-21.8l-109.7,2c-12.2,0.2-22,10.4-21.8,22.6l2.3,127.3
		c0.2,12.2,10.4,22,22.6,21.8l109.7-2c12.2-0.2,22-10.4,21.8-22.6L266.5,109.6L266.5,109.6z"/>
	<path class="st2" d="M247,238.7l0.7-0.1c1.4,4.3,1,8.7-1.2,12.3c-2.5,4.3-7.1,7.2-12.6,8l-0.2-0.7
		c5.3-0.8,9.8-3.6,12.1-7.7C247.9,247,248.3,242.8,247,238.7L247,238.7z"/>
	<g>
		<g>
			<g>
				<g>
					<g>
						
							<rect x="211.6" y="121.8" transform="matrix(0.9998 -2.051479e-02 2.051479e-02 0.9998 -3.0282 4.7032)" class="st3" width="32.2" height="56.3"/>
					</g>
					<g>
						
							<rect x="212.2" y="175.4" transform="matrix(0.9998 -2.051479e-02 2.051479e-02 0.9998 -3.5768 4.7201)" class="st1" width="32.2" height="2.6"/>
					</g>
					<g>
						
							<rect x="211.1" y="121.8" transform="matrix(0.9998 -2.051479e-02 2.051479e-02 0.9998 -2.4776 4.6862)" class="st1" width="32.2" height="2.6"/>
					</g>
					<g>
						<polygon class="st1" points="212.3,178.3 214.8,175.7 213.8,124.7 211.1,122.1 						"/>
					</g>
					<g>
						<polygon class="st4" points="243.3,121.5 240.7,124.1 241.7,175.1 244.5,177.7 						"/>
					</g>
					<g>
						<g>
							<path class="st5" d="M228.3,128.4c0-0.5,0.4-0.8,0.8-0.8l6.6-0.1c0.5,0,0.8,0.4,0.8,0.8c0,0.4-0.4,0.8-0.8,0.8l-6.6,0.1
								C228.8,129.2,228.3,128.8,228.3,128.4z"/>
						</g>
						<g>
							<path class="st5" d="M231.3,133.7c0-0.5,0.4-0.8,0.8-0.8l3.8-0.1c0.5,0,0.8,0.4,0.8,0.8c0,0.5-0.4,0.8-0.8,0.8l-3.8,0.1
								C231.7,134.5,231.3,134.1,231.3,133.7z"/>
						</g>
						<g>
							<path class="st5" d="M228.5,139.1c0-0.5,0.4-0.8,0.8-0.8l6.6-0.1c0.5,0,0.8,0.4,0.8,0.8c0,0.5-0.4,0.8-0.8,0.8l-6.6,0.1
								C229,140,228.5,139.6,228.5,139.1z"/>
						</g>
						<g>
							<path class="st5" d="M231.5,144.4c0-0.5,0.4-0.8,0.8-0.8l3.8-0.1c0.5,0,0.8,0.4,0.8,0.8c0,0.5-0.4,0.8-0.8,0.8l-3.8,0.1
								C231.9,145.3,231.5,144.9,231.5,144.4z"/>
						</g>
						<g>
							<path class="st5" d="M228.7,149.9c0-0.5,0.4-0.8,0.8-0.8l6.6-0.1c0.5,0,0.8,0.4,0.8,0.8c0,0.4-0.4,0.8-0.8,0.8l-6.6,0.1
								C229.2,150.7,228.7,150.4,228.7,149.9z"/>
						</g>
						<g>
							<path class="st5" d="M231.7,155.2c0-0.5,0.4-0.8,0.8-0.8l3.8-0.1c0.5,0,0.8,0.4,0.8,0.8c0,0.5-0.4,0.8-0.8,0.8l-3.8,0.1
								C232.1,156,231.7,155.7,231.7,155.2z"/>
						</g>
						<g>
							<path class="st5" d="M228.9,160.7c0-0.5,0.4-0.8,0.8-0.8l6.6-0.1c0.5,0,0.8,0.4,0.8,0.8c0,0.4-0.4,0.8-0.8,0.8l-6.6,0.1
								C229.5,161.5,229,161.2,228.9,160.7z"/>
						</g>
						<g>
							<path class="st5" d="M232,166c0-0.5,0.4-0.8,0.8-0.8l3.8-0.1c0.5,0,0.8,0.4,0.8,0.8c0,0.5-0.4,0.8-0.8,0.8l-3.8,0.1
								C232.4,166.8,232,166.5,232,166z"/>
						</g>
						<g>
							<path class="st5" d="M229.2,171.4c0-0.5,0.4-0.8,0.8-0.8l6.6-0.1c0.5,0,0.8,0.4,0.8,0.8c0,0.5-0.4,0.8-0.8,0.8l-6.6,0.1
								C229.7,172.3,229.2,171.9,229.2,171.4z"/>
						</g>
					</g>
				</g>
				<g>
					<path class="st6" d="M217.7,139.3c0-0.5,0.4-0.8,0.8-0.8l6.5-0.1c0.5,0,0.8,0.4,0.8,0.8c0,0.5-0.4,0.8-0.8,0.8l-6.5,0.1
						C218.1,140.2,217.7,139.8,217.7,139.3z"/>
				</g>
				<g>
					<path class="st5" d="M218.4,171.6l-0.9-43.1c0-0.5,0.4-0.8,0.8-0.8c0.5,0,0.8,0.4,0.8,0.8l0.9,43.1c0,0.5-0.4,0.8-0.8,0.8
						C218.8,172.5,218.4,172.1,218.4,171.6z"/>
				</g>
			</g>
			<g>
				<g>
					<g>
						
							<rect x="131.1" y="123.1" transform="matrix(0.9998 -2.051479e-02 2.051479e-02 0.9998 -3.6381 3.4617)" class="st3" width="71.6" height="112"/>
					</g>
					<g>
						
							<rect x="132.2" y="232.4" transform="matrix(0.9998 -2.051479e-02 2.051479e-02 0.9998 -4.7598 3.4962)" class="st1" width="71.6" height="2.6"/>
					</g>
					<g>
						
							<rect x="130" y="123.1" transform="matrix(0.9998 -2.051479e-02 2.051479e-02 0.9998 -2.5164 3.4272)" class="st1" width="71.6" height="2.6"/>
					</g>
					<g>
						<polygon class="st1" points="132.2,235.8 134.8,233.1 132.6,126.3 129.9,123.8 						"/>
					</g>
					<g>
						<polygon class="st4" points="201.5,122.3 198.9,125 201.1,231.8 203.8,234.3 						"/>
					</g>
				</g>
			</g>
			<g>
				<g>
					<g>
						<g>
							<path class="st4" d="M247.5,211.7c-0.2-10.2-8.6-18.2-18.8-18l0.8,36.8C239.7,230.3,247.7,221.9,247.5,211.7z"/>
						</g>
						<g>
							<path class="st7" d="M210.7,212.5c0.2,10.2,8.6,18.2,18.8,18l-0.8-36.8C218.5,193.9,210.5,202.4,210.7,212.5z"/>
						</g>
					</g>
					<g>
						
							<ellipse transform="matrix(0.9998 -2.051479e-02 2.051479e-02 0.9998 -4.3026 4.7445)" class="st5" cx="229.1" cy="212.1" rx="15.6" ry="15.6"/>
						<path class="st3" d="M212.7,212.4c-0.2-9.1,7-16.5,16.1-16.7c9.1-0.2,16.5,7,16.7,16.1c0.2,9.1-7,16.5-16.1,16.7
							C220.3,228.7,212.9,221.5,212.7,212.4z M243.8,211.8c-0.2-8.1-6.9-14.6-15-14.4c-8.1,0.2-14.6,6.9-14.4,15
							c0.2,8.1,6.9,14.6,15,14.4C237.5,226.6,244,220,243.8,211.8z"/>
					</g>
					<g>
						<polygon class="st6" points="227.7,212.1 229.1,210.7 235.2,218.1 						"/>
					</g>
					<g>
						
							<ellipse transform="matrix(0.6925 -0.7215 0.7215 0.6925 -82.5476 230.4874)" class="st6" cx="229.1" cy="212.1" rx="1.6" ry="1.6"/>
					</g>
					<g>
						<g>
							<path class="st6" d="M234.3,221.2c0-0.2,0.1-0.4,0.3-0.6c0.3-0.2,0.7-0.1,0.9,0.3l1.1,1.9c0.2,0.3,0.1,0.7-0.3,0.9
								c-0.3,0.2-0.7,0.1-0.9-0.3l-1.1-1.9C234.4,221.4,234.3,221.3,234.3,221.2z"/>
						</g>
						<g>
							<g>
								<path class="st3" d="M239.4,211.9c0-0.4,0.3-0.6,0.6-0.6l2.2,0c0.4,0,0.6,0.3,0.6,0.6c0,0.4-0.3,0.6-0.6,0.6l-2.2,0
									C239.7,212.6,239.4,212.3,239.4,211.9z"/>
							</g>
							<g>
								<path class="st3" d="M228.6,201.5l0-2.2c0-0.4,0.3-0.6,0.6-0.6c0.4,0,0.6,0.3,0.6,0.6l0,2.2c0,0.4-0.3,0.6-0.6,0.6
									C228.9,202.2,228.6,201.9,228.6,201.5z"/>
							</g>
							<g>
								<path class="st6" d="M229.1,224.9l0-2.2c0-0.4,0.3-0.6,0.6-0.6c0.4,0,0.6,0.3,0.6,0.6l0,2.2c0,0.4-0.3,0.6-0.6,0.6
									C229.4,225.6,229.1,225.3,229.1,224.9z"/>
							</g>
							<g>
								<path class="st3" d="M237.9,206.6c0-0.2,0.1-0.4,0.3-0.6l1.9-1.1c0.3-0.2,0.7-0.1,0.9,0.3c0.2,0.3,0.1,0.7-0.3,0.9l-1.9,1.1
									c-0.3,0.2-0.7,0.1-0.9-0.3C237.9,206.9,237.9,206.7,237.9,206.6z"/>
							</g>
							<g>
								<path class="st3" d="M222.3,201.1c0-0.2,0.1-0.4,0.3-0.6c0.3-0.2,0.7-0.1,0.9,0.3l1.1,1.9c0.2,0.3,0.1,0.7-0.3,0.9
									c-0.3,0.2-0.7,0.1-0.9-0.3l-1.1-1.9C222.3,201.4,222.3,201.3,222.3,201.1z"/>
							</g>
							<g>
								<path class="st3" d="M233.9,202.9c0-0.1,0.1-0.2,0.1-0.3l1.1-1.9c0.2-0.3,0.6-0.4,0.9-0.3c0.3,0.2,0.4,0.6,0.3,0.9l-1.1,1.9
									c-0.2,0.3-0.6,0.4-0.9,0.3C234.1,203.3,233.9,203.1,233.9,202.9z"/>
							</g>
							<g>
								<path class="st6" d="M222.7,223.3c0-0.1,0.1-0.2,0.1-0.3l1.1-1.9c0.2-0.3,0.6-0.4,0.9-0.3c0.3,0.2,0.4,0.6,0.3,0.9l-1.1,1.9
									c-0.2,0.3-0.6,0.4-0.9,0.3C222.8,223.7,222.7,223.5,222.7,223.3z"/>
							</g>
							<g>
								<path class="st3" d="M238.1,217.2c0-0.1,0.1-0.2,0.1-0.3c0.2-0.3,0.6-0.4,0.9-0.3l1.9,1.1c0.3,0.2,0.4,0.6,0.3,0.9
									c-0.2,0.3-0.6,0.4-0.9,0.3l-1.9-1.1C238.2,217.7,238.1,217.4,238.1,217.2z"/>
							</g>
							<g>
								<path class="st3" d="M235.6,201.2c0-0.1,0.1-0.3,0.1-0.4c0.2-0.3,0.6-0.4,0.9-0.2c3.9,2.4,6.2,6.6,6.3,11.2
									c0.1,4.6-2.1,8.8-5.9,11.4c-0.3,0.2-0.7,0.1-0.9-0.2c-0.2-0.3-0.1-0.7,0.2-0.9c3.5-2.3,5.4-6.2,5.3-10.3
									c-0.1-4.1-2.3-7.9-5.7-10.1C235.7,201.6,235.6,201.4,235.6,201.2z"/>
							</g>
							<g>
								<path class="st3" d="M221.6,201.5c0-0.2,0.1-0.4,0.3-0.5c2.2-1.4,4.7-2.3,7.3-2.3c2.6-0.1,5.1,0.7,7.3,2
									c0.3,0.2,0.4,0.6,0.2,0.9c-0.2,0.3-0.6,0.4-0.9,0.2c-2-1.3-4.3-1.9-6.6-1.9c-2.3,0-4.6,0.8-6.6,2.1
									c-0.3,0.2-0.7,0.1-0.9-0.2C221.7,201.7,221.6,201.6,221.6,201.5z"/>
							</g>
							<g>
								<path class="st6" d="M222,223c0-0.1,0.1-0.3,0.1-0.4c0.2-0.3,0.6-0.4,0.9-0.2c2,1.3,4.3,1.9,6.6,1.9c2.3,0,4.7-0.8,6.6-2.1
									c0.3-0.2,0.7-0.1,0.9,0.2c0.2,0.3,0.1,0.7-0.2,0.9c-2.2,1.4-4.7,2.3-7.3,2.3c-2.6,0.1-5.1-0.7-7.3-2
									C222.2,223.4,222,223.2,222,223z"/>
							</g>
						</g>
					</g>
				</g>
				<g>
					<path class="st8" d="M219.8,217.6l-0.2-10.6c0-0.4,0.3-0.6,0.6-0.6c0.4,0,0.6,0.3,0.6,0.6l0.2,10.6c0,0.4-0.3,0.6-0.6,0.6
						C220.1,218.3,219.8,218,219.8,217.6z"/>
				</g>
			</g>
		</g>
		<g>
			<g>
				<g>
					<g>
						<path class="st9" d="M178.7,180c-0.1-3.8,3-7,6.8-7c3.8-0.1,7,3,7,6.8s-3,7-6.8,7C182,186.8,178.8,183.8,178.7,180z
							 M191.4,179.7c-0.1-3.1-2.6-5.6-5.8-5.6c-3.1,0.1-5.6,2.6-5.6,5.8c0.1,3.1,2.6,5.6,5.8,5.6
							C188.9,185.5,191.5,182.8,191.4,179.7z"/>
					</g>
				</g>
				<g>
					<g>
						
							<ellipse transform="matrix(0.9998 -2.051479e-02 2.051479e-02 0.9998 -3.6508 3.848)" class="st9" cx="185.7" cy="179.9" rx="1.5" ry="1.5"/>
					</g>
				</g>
				<g>
					<g>
						<g>
							<path class="st9" d="M177.5,179.9C177.5,179.8,177.5,179.8,177.5,179.9c0-0.2,0-0.4,0.1-0.6c0.1-0.7,0.7-1.2,1.4-1.2
								c0.7,0,1.2,0.7,1.2,1.4c0,0.1,0,0.3,0,0.4c0,0.7-0.6,1.3-1.3,1.3C178,181.1,177.5,180.5,177.5,179.9z M179.2,184.6
								c0-0.4,0.2-0.7,0.5-1c0.5-0.5,1.3-0.4,1.8,0.2c0.1,0.1,0.2,0.2,0.3,0.3c0.5,0.5,0.5,1.3,0,1.8c-0.5,0.5-1.3,0.5-1.8,0
								c-0.1-0.1-0.3-0.3-0.4-0.4C179.4,185.2,179.2,184.9,179.2,184.6z M179.6,174.9c0-0.4,0.2-0.7,0.4-0.9
								c0.1-0.1,0.3-0.2,0.4-0.3c0.6-0.5,1.4-0.4,1.8,0.2c0.5,0.6,0.4,1.4-0.2,1.8c-0.1,0.1-0.2,0.2-0.3,0.3
								c-0.5,0.5-1.3,0.5-1.8-0.1C179.7,175.5,179.6,175.2,179.6,174.9z M184.2,186.8C184.2,186.7,184.2,186.7,184.2,186.8
								c0.1-0.8,0.7-1.3,1.4-1.3c0.1,0,0.3,0,0.4,0c0.7,0,1.3,0.6,1.3,1.3c0,0.7-0.6,1.3-1.3,1.3c-0.2,0-0.4,0-0.5,0
								C184.7,188.1,184.2,187.5,184.2,186.8z M184.6,173L184.6,173c0.1-0.8,0.6-1.3,1.3-1.3c0.2,0,0.4,0,0.5,0.1
								c0.7,0.1,1.2,0.7,1.1,1.4s-0.7,1.2-1.4,1.1c-0.1,0-0.3,0-0.4-0.1C185.2,174.2,184.6,173.7,184.6,173z M188.6,185.4
								c0-0.4,0.2-0.8,0.5-1c0.1-0.1,0.2-0.2,0.3-0.2c0.6-0.5,1.3-0.4,1.8,0.2c0.5,0.6,0.4,1.3-0.2,1.8c-0.2,0.1-0.3,0.2-0.4,0.3
								c-0.6,0.4-1.4,0.3-1.8-0.3C188.7,185.9,188.6,185.7,188.6,185.4z M189.5,175.2c0-0.4,0.2-0.7,0.4-1c0.5-0.5,1.3-0.4,1.8,0.1
								c0.1,0.1,0.2,0.3,0.3,0.4c0.5,0.6,0.4,1.4-0.2,1.8c-0.6,0.5-1.4,0.4-1.8-0.2c-0.1-0.1-0.2-0.2-0.2-0.3
								C189.6,175.8,189.5,175.5,189.5,175.2z M191.3,180.7c0-0.1,0-0.1,0-0.2c0-0.1,0.1-0.3,0.1-0.4c0.1-0.7,0.7-1.2,1.4-1.2
								c0.7,0.1,1.2,0.7,1.2,1.4c0,0.2-0.1,0.4-0.1,0.5c-0.1,0.7-0.7,1.2-1.4,1.1C191.8,181.8,191.4,181.4,191.3,180.7z"/>
						</g>
					</g>
				</g>
			</g>
			<g>
				<g>
					<g>
						<path class="st9" d="M172.7,198c-0.1-4.9,3.8-9,8.7-9.1c4.9-0.1,9,3.8,9.1,8.7c0.1,4.9-3.8,9-8.7,9.1
							C176.9,207,172.8,202.9,172.7,198z M188.9,197.7c-0.1-4-3.4-7.2-7.4-7.1c-4,0.1-7.2,3.4-7.1,7.4c0.1,4,3.4,7.2,7.4,7.1
							S189,201.8,188.9,197.7z"/>
					</g>
				</g>
				<g>
					<g>
						
							<ellipse transform="matrix(0.9998 -2.051479e-02 2.051479e-02 0.9998 -4.0207 3.767)" class="st9" cx="181.6" cy="197.9" rx="2" ry="2"/>
					</g>
				</g>
				<g>
					<g>
						<g>
							<path class="st9" d="M171,197.9L171,197.9c0-0.3,0-0.5,0.1-0.7c0.1-0.9,0.9-1.6,1.8-1.5c0.9,0.1,1.6,0.9,1.5,1.8
								c0,0.2,0,0.3,0,0.5c0,0.9-0.8,1.6-1.7,1.6C171.8,199.5,171,198.8,171,197.9z M173.3,203.8c0-0.5,0.2-0.9,0.6-1.2
								c0.7-0.6,1.7-0.5,2.3,0.2c0.1,0.1,0.2,0.2,0.3,0.3c0.6,0.7,0.6,1.7-0.1,2.3c-0.7,0.6-1.7,0.6-2.3-0.1
								c-0.2-0.2-0.3-0.3-0.5-0.5C173.4,204.6,173.3,204.3,173.3,203.8z M173.8,191.5c0-0.5,0.2-0.9,0.5-1.2
								c0.2-0.2,0.3-0.3,0.5-0.4c0.7-0.6,1.7-0.5,2.3,0.2c0.6,0.7,0.5,1.7-0.2,2.3c-0.1,0.1-0.2,0.2-0.4,0.3
								c-0.7,0.6-1.7,0.6-2.3-0.1C174,192.3,173.8,191.9,173.8,191.5z M179.6,206.8C179.6,206.7,179.6,206.7,179.6,206.8
								c0.1-1,0.8-1.7,1.7-1.6c0.2,0,0.3,0,0.5,0c0.9,0,1.6,0.7,1.6,1.6c0,0.9-0.7,1.6-1.6,1.6c-0.2,0-0.4,0-0.7,0
								C180.3,208.4,179.6,207.7,179.6,206.8z M180.2,189C180.2,188.9,180.2,188.9,180.2,189c0.1-1,0.8-1.7,1.7-1.7
								c0.2,0,0.4,0.1,0.7,0.1c0.9,0.1,1.5,0.9,1.5,1.8c-0.1,0.9-0.9,1.5-1.8,1.5c-0.2,0-0.3-0.1-0.5-0.1
								C180.9,190.7,180.2,189.9,180.2,189z M185.4,205c0-0.5,0.2-1,0.7-1.3c0.1-0.1,0.3-0.2,0.4-0.3c0.7-0.6,1.7-0.5,2.3,0.2
								c0.6,0.7,0.5,1.7-0.2,2.3c-0.2,0.2-0.4,0.3-0.5,0.4c-0.7,0.6-1.7,0.4-2.3-0.4C185.6,205.7,185.4,205.3,185.4,205z
								 M186.5,191.9c0-0.5,0.2-0.9,0.6-1.2c0.7-0.6,1.7-0.6,2.3,0.2c0.2,0.2,0.3,0.3,0.4,0.5c0.6,0.7,0.5,1.7-0.3,2.3
								c-0.7,0.6-1.7,0.5-2.3-0.3c-0.1-0.1-0.2-0.3-0.3-0.4C186.7,192.6,186.5,192.3,186.5,191.9z M188.8,198.9c0-0.1,0-0.2,0-0.2
								c0-0.2,0.1-0.3,0.1-0.5c0.1-0.9,0.9-1.6,1.7-1.5c0.9,0.1,1.6,0.9,1.5,1.7c0,0.2-0.1,0.4-0.1,0.7c-0.1,0.9-1,1.5-1.8,1.4
								C189.4,200.4,188.8,199.7,188.8,198.9z"/>
						</g>
					</g>
				</g>
			</g>
			<g>
				<g>
					<g>
						<path class="st9" d="M179.7,215.2c-0.1-3,2-5.7,5-6.4c1.7-0.4,3.4-0.2,4.8,0.8c1.4,0.9,2.4,2.4,2.9,4c0.1,0.5,0.2,0.9,0.2,1.3
							c0.1,3-2,5.7-5,6.4c-3.5,0.8-6.9-1.4-7.7-4.8C179.9,216.1,179.8,215.6,179.7,215.2z M191.5,215c0-0.4-0.1-0.7-0.1-1.1
							c-0.3-1.4-1.2-2.5-2.4-3.3c-1.2-0.8-2.6-0.9-4-0.7c-2.4,0.5-4.1,2.7-4.1,5.2c0,0.4,0.1,0.7,0.1,1.1c0.7,2.9,3.5,4.6,6.3,4
							C189.8,219.6,191.6,217.4,191.5,215z"/>
					</g>
				</g>
				<g>
					<g>
						
							<ellipse transform="matrix(0.9741 -0.2262 0.2262 0.9741 -43.803 47.7059)" class="st9" cx="186.2" cy="215" rx="1.4" ry="1.4"/>
					</g>
				</g>
				<g>
					<g>
						<g>
							<path class="st9" d="M178.8,216.6L178.8,216.6c-0.1-0.2-0.1-0.4-0.1-0.5c-0.1-0.7,0.4-1.2,1-1.3c0.7-0.1,1.2,0.4,1.3,1
								c0,0.1,0.1,0.2,0.1,0.3c0.1,0.7-0.3,1.3-1,1.4C179.5,217.6,178.9,217.2,178.8,216.6z M181.3,220.5c-0.1-0.3,0-0.7,0.2-1
								c0.4-0.5,1.1-0.6,1.7-0.2c0.1,0.1,0.2,0.2,0.3,0.2c0.6,0.4,0.7,1.1,0.3,1.6c-0.4,0.6-1.1,0.7-1.6,0.3
								c-0.2-0.1-0.3-0.2-0.4-0.3C181.5,221.1,181.4,220.8,181.3,220.5z M179.7,211.7c-0.1-0.3,0-0.7,0.2-0.9
								c0.1-0.1,0.2-0.3,0.3-0.4c0.4-0.5,1.2-0.6,1.7-0.2s0.6,1.2,0.2,1.7c-0.1,0.1-0.2,0.2-0.2,0.3c-0.4,0.6-1.1,0.7-1.7,0.3
								C180,212.2,179.8,212,179.7,211.7z M186.2,221.7L186.2,221.7c-0.1-0.7,0.4-1.3,1-1.4c0.1,0,0.2-0.1,0.3-0.1
								c0.7-0.2,1.3,0.3,1.4,0.9c0.2,0.7-0.3,1.3-0.9,1.4c-0.2,0.1-0.3,0.1-0.5,0.1C186.9,222.7,186.3,222.3,186.2,221.7z
								 M183.9,208.9L183.9,208.9c-0.1-0.7,0.4-1.3,1-1.4c0.2,0,0.3-0.1,0.5-0.1c0.7-0.1,1.2,0.4,1.3,1.1c0.1,0.7-0.4,1.2-1.1,1.3
								c-0.1,0-0.2,0-0.3,0.1C184.6,210,184,209.6,183.9,208.9z M190,219.5c-0.1-0.4,0-0.8,0.3-1c0.1-0.1,0.2-0.2,0.2-0.3
								c0.4-0.5,1.2-0.6,1.7-0.2c0.5,0.4,0.6,1.2,0.2,1.7c-0.1,0.1-0.2,0.3-0.3,0.4c-0.5,0.5-1.2,0.6-1.7,0.1
								C190.1,219.9,190,219.7,190,219.5z M188.8,210c-0.1-0.3,0-0.7,0.2-1c0.4-0.5,1.1-0.6,1.7-0.3c0.1,0.1,0.3,0.2,0.4,0.3
								c0.5,0.4,0.6,1.2,0.2,1.7c-0.4,0.5-1.2,0.6-1.7,0.2c-0.1-0.1-0.2-0.2-0.3-0.2C189.1,210.6,188.9,210.3,188.8,210z
								 M191.5,214.7c0-0.1,0-0.1,0-0.2c0-0.1,0-0.2-0.1-0.3c-0.1-0.7,0.4-1.3,1-1.3c0.7-0.1,1.2,0.4,1.3,1c0,0.2,0.1,0.3,0.1,0.5
								c0.1,0.7-0.5,1.2-1.1,1.3C192.2,215.6,191.7,215.3,191.5,214.7z"/>
						</g>
					</g>
				</g>
			</g>
		</g>
		<g>
			
				<rect x="139.3" y="132.3" transform="matrix(0.9998 -2.051479e-02 2.051479e-02 0.9998 -3.6584 3.0025)" class="st10" width="10.4" height="95"/>
		</g>
		<g>
			<g>
				<g>
					<g>
						<g>
							<path class="st11" d="M163.4,177.3l1.6,0c0.7,0,1.3-0.6,1.3-1.3c0-0.7-0.6-1.3-1.3-1.3l-1.6,0c-0.6-1.8-2.3-3.1-4.3-3
								l-9.5,0.2c0,1.9,0.1,6.9,0.2,8.7l9.5-0.2C161.2,180.5,162.8,179.1,163.4,177.3z"/>
						</g>
						<g>
							<path class="st12" d="M162.6,177.1l0.2-0.6l2.1,0c0.3,0,0.5-0.2,0.5-0.5c0-0.3-0.2-0.5-0.5-0.5l-2.1,0l-0.2-0.6
								c-0.5-1.5-1.9-2.5-3.5-2.4l-8.7,0.2l0.1,3.5l0.1,3.5l8.7-0.2C160.7,179.7,162.1,178.5,162.6,177.1z"/>
						</g>
						<g>
							
								<rect x="149.6" y="171.7" transform="matrix(0.9998 -2.051479e-02 2.051479e-02 0.9998 -3.5858 3.1594)" class="st5" width="5.1" height="9.4"/>
						</g>
						<g>
							<g>
								<path class="st8" d="M149.5,168.6c1.4,0,2.6,1.1,2.7,2.5l0.2,10.4c0,1.4-1.1,2.6-2.5,2.7C149.8,183,149.5,170.2,149.5,168.6
									z"/>
							</g>
						</g>
					</g>
				</g>
			</g>
			<g>
				<g>
					<g>
						<g>
							<path class="st13" d="M163.8,198.8l1.6,0c0.7,0,1.3-0.6,1.3-1.3s-0.6-1.3-1.3-1.3l-1.6,0c-0.6-1.8-2.3-3.1-4.3-3l-9.5,0.2
								c0,1.9,0.1,6.9,0.2,8.7l9.5-0.2C161.7,202,163.2,200.6,163.8,198.8z"/>
						</g>
						<g>
							<path class="st14" d="M163,198.6l0.2-0.6l2.1,0c0.3,0,0.5-0.2,0.5-0.5s-0.2-0.5-0.5-0.5l-2.1,0l-0.2-0.6
								c-0.5-1.5-1.9-2.5-3.5-2.4l-8.7,0.2l0.1,3.5l0.1,3.5l8.7-0.2C161.2,201.2,162.5,200.1,163,198.6z"/>
						</g>
						<g>
							
								<rect x="150.1" y="193.1" transform="matrix(0.9998 -2.051479e-02 2.051479e-02 0.9998 -4.0267 3.173)" class="st5" width="5.1" height="9.4"/>
						</g>
						<g>
							<g>
								<path class="st8" d="M149.9,190.1c1.4,0,2.6,1.1,2.7,2.5l0.2,10.4c0,1.4-1.1,2.6-2.5,2.7C150.2,204.5,150,191.7,149.9,190.1
									z"/>
							</g>
						</g>
					</g>
				</g>
			</g>
			<g>
				<g>
					<g>
						<g>
							<path class="st15" d="M164.3,220.3l1.6,0c0.7,0,1.3-0.6,1.3-1.3c0-0.7-0.6-1.3-1.3-1.3l-1.6,0c-0.6-1.8-2.3-3.1-4.3-3
								l-9.5,0.2c0,1.9,0.1,6.9,0.2,8.7l9.5-0.2C162.1,223.5,163.7,222.1,164.3,220.3z"/>
						</g>
						<g>
							<path class="st6" d="M163.4,220.1l0.2-0.6l2.1,0c0.3,0,0.5-0.2,0.5-0.5c0-0.3-0.2-0.5-0.5-0.5l-2.1,0l-0.2-0.6
								c-0.5-1.5-1.9-2.5-3.5-2.4l-8.7,0.2l0.1,3.5l0.1,3.5l8.7-0.2C161.6,222.7,163,221.6,163.4,220.1z"/>
						</g>
						<g>
							
								<rect x="150.5" y="214.6" transform="matrix(0.9998 -2.051479e-02 2.051479e-02 0.9998 -4.4676 3.1865)" class="st5" width="5.1" height="9.4"/>
						</g>
						<g>
							<g>
								<path class="st8" d="M150.4,211.6c1.4,0,2.6,1.1,2.7,2.5l0.2,10.4c0,1.4-1.1,2.6-2.5,2.7C150.7,226,150.4,213.2,150.4,211.6
									z"/>
							</g>
						</g>
					</g>
				</g>
			</g>
		</g>
		<g>
			
				<rect x="149" y="132" transform="matrix(0.9998 -2.051479e-02 2.051479e-02 0.9998 -2.9629 3.2572)" class="st9" width="16.5" height="28"/>
		</g>
		<g>
			<g>
				
					<rect x="165.4" y="135.2" transform="matrix(0.9998 -2.051479e-02 2.051479e-02 0.9998 -2.7897 3.4489)" class="st5" width="2.7" height="4.9"/>
			</g>
			<g>
				
					<rect x="165.7" y="151.4" transform="matrix(0.9998 -2.051479e-02 2.051479e-02 0.9998 -3.1219 3.4591)" class="st5" width="2.7" height="4.9"/>
			</g>
		</g>
		<g>
			<g>
				<path class="st3" d="M159.3,140.1l-0.1-4.3c0-0.4,0.3-0.6,0.6-0.6c0.4,0,0.6,0.3,0.6,0.6l0.1,4.3c0,0.4-0.3,0.6-0.6,0.6
					C159.6,140.7,159.3,140.4,159.3,140.1z"/>
			</g>
			<g>
				<path class="st3" d="M159.6,156.2l-0.1-4.3c0-0.4,0.3-0.6,0.6-0.6c0.4,0,0.6,0.3,0.6,0.6l0.1,4.3c0,0.4-0.3,0.6-0.6,0.6
					C159.9,156.9,159.6,156.5,159.6,156.2z"/>
			</g>
			<g>
				<path class="st3" d="M157.4,154.1c0-0.4,0.3-0.6,0.6-0.6l4.3-0.1c0.4,0,0.6,0.3,0.6,0.6c0,0.3-0.3,0.6-0.6,0.6l-4.3,0.1
					C157.7,154.7,157.4,154.4,157.4,154.1z"/>
			</g>
		</g>
		<g>
			
				<ellipse transform="matrix(0.9998 -2.051479e-02 2.051479e-02 0.9998 -3.2585 2.9902)" class="st3" cx="144.1" cy="160.3" rx="2.5" ry="2.5"/>
		</g>
		<g>
			
				<ellipse transform="matrix(0.9998 -2.051479e-02 2.051479e-02 0.9998 -4.0459 3.0145)" class="st3" cx="144.9" cy="198.7" rx="2.5" ry="2.5"/>
		</g>
		<g>
			
				<ellipse transform="matrix(0.9998 -2.051479e-02 2.051479e-02 0.9998 -4.4417 3.0267)" class="st3" cx="145.3" cy="218" rx="2.5" ry="2.5"/>
		</g>
		<g>
			
				<ellipse transform="matrix(0.9998 -2.051479e-02 2.051479e-02 0.9998 -2.8566 2.9779)" class="st3" cx="143.7" cy="140.7" rx="2.5" ry="2.5"/>
		</g>
		<g>
			<path class="st12" d="M143.3,160.3l-0.4-19.5c0-0.5,0.4-0.8,0.8-0.8c0.5,0,0.8,0.4,0.8,0.8l0.4,19.5c0,0.5-0.4,0.8-0.8,0.8
				C143.6,161.1,143.3,160.7,143.3,160.3z"/>
		</g>
		<g>
			<path class="st14" d="M144.5,218.3l-0.4-19.5c0-0.5,0.4-0.8,0.8-0.8c0.5,0,0.8,0.4,0.8,0.8l0.4,19.5c0,0.5-0.4,0.8-0.8,0.8
				C144.8,219.1,144.5,218.8,144.5,218.3z"/>
		</g>
		<g>
			<g>
				<path class="st14" d="M172.3,141.7l-0.2-7.8c0-1.2,1-2.2,2.2-2.2l15.5-0.3c1.2,0,2.2,1,2.2,2.2l0.2,7.8c0,1.2-1,2.2-2.2,2.2
					l-15.5,0.3C173.4,144,172.4,143,172.3,141.7z"/>
			</g>
			<g>
				<g>
					<path class="st3" d="M189,141.4l-0.2-7.8c0-0.3,0.3-0.6,0.6-0.6c0.3,0,0.6,0.3,0.6,0.6l0.2,7.8c0,0.3-0.3,0.6-0.6,0.6
						C189.2,142,189,141.8,189,141.4z"/>
				</g>
				<g>
					<path class="st3" d="M186.1,141.4l-0.2-7.8c0-0.3,0.3-0.6,0.6-0.6c0.3,0,0.6,0.3,0.6,0.6l0.2,7.8c0,0.3-0.3,0.6-0.6,0.6
						S186.1,141.8,186.1,141.4z"/>
				</g>
				<g>
					<path class="st3" d="M183.2,141.5l-0.2-7.8c0-0.3,0.3-0.6,0.6-0.6c0.3,0,0.6,0.3,0.6,0.6l0.2,7.8c0,0.3-0.3,0.6-0.6,0.6
						C183.5,142.1,183.2,141.9,183.2,141.5z"/>
				</g>
				<g>
					<path class="st3" d="M180.3,141.6l-0.2-7.8c0-0.3,0.3-0.6,0.6-0.6s0.6,0.3,0.6,0.6l0.2,7.8c0,0.3-0.3,0.6-0.6,0.6
						C180.6,142.2,180.3,142,180.3,141.6z"/>
				</g>
				<g>
					<path class="st3" d="M177.4,141.6l-0.2-7.8c0-0.3,0.3-0.6,0.6-0.6s0.6,0.3,0.6,0.6l0.2,7.8c0,0.3-0.3,0.6-0.6,0.6
						C177.7,142.2,177.4,142,177.4,141.6z"/>
				</g>
				<g>
					<path class="st3" d="M174.4,141.7l-0.2-7.8c0-0.3,0.3-0.6,0.6-0.6c0.3,0,0.6,0.3,0.6,0.6l0.2,7.8c0,0.3-0.3,0.6-0.6,0.6
						C174.8,142.3,174.4,142.1,174.4,141.7z"/>
				</g>
			</g>
		</g>
		<g>
			<g>
				<path class="st6" d="M172.7,157.4l-0.2-7.8c0-1.2,1-2.2,2.2-2.2l15.5-0.3c1.2,0,2.2,1,2.2,2.2l0.2,7.8c0,1.2-1,2.2-2.2,2.2
					l-15.5,0.3C173.7,159.7,172.7,158.6,172.7,157.4z"/>
			</g>
			<g>
				<g>
					<path class="st3" d="M189.4,157.1l-0.2-7.8c0-0.3,0.3-0.6,0.6-0.6c0.3,0,0.6,0.3,0.6,0.6l0.2,7.8c0,0.3-0.3,0.6-0.6,0.6
						C189.6,157.7,189.4,157.5,189.4,157.1z"/>
				</g>
				<g>
					<path class="st3" d="M186.5,157.1l-0.2-7.8c0-0.3,0.3-0.6,0.6-0.6c0.3,0,0.6,0.3,0.6,0.6l0.2,7.8c0,0.3-0.3,0.6-0.6,0.6
						C186.8,157.7,186.5,157.5,186.5,157.1z"/>
				</g>
				<g>
					<path class="st3" d="M183.6,157.2l-0.2-7.8c0-0.3,0.3-0.6,0.6-0.6c0.3,0,0.6,0.3,0.6,0.6l0.2,7.8c0,0.3-0.3,0.6-0.6,0.6
						C183.9,157.8,183.6,157.6,183.6,157.2z"/>
				</g>
				<g>
					<path class="st3" d="M180.7,157.3l-0.2-7.8c0-0.3,0.3-0.6,0.6-0.6c0.3,0,0.6,0.3,0.6,0.6l0.2,7.8c0,0.3-0.3,0.6-0.6,0.6
						C181,157.9,180.7,157.7,180.7,157.3z"/>
				</g>
				<g>
					<path class="st3" d="M177.8,157.3l-0.2-7.8c0-0.3,0.3-0.6,0.6-0.6c0.3,0,0.6,0.3,0.6,0.6l0.2,7.8c0,0.3-0.3,0.6-0.6,0.6
						C178.1,157.9,177.8,157.7,177.8,157.3z"/>
				</g>
				<g>
					<path class="st3" d="M174.8,157.4l-0.2-7.8c0-0.3,0.3-0.6,0.6-0.6c0.3,0,0.6,0.3,0.6,0.6l0.2,7.8c0,0.3-0.3,0.6-0.6,0.6
						C175.1,158,174.8,157.8,174.8,157.4z"/>
				</g>
			</g>
		</g>
	</g>
	<path class="st16" d="M268.8,236.9l-1.1-60.3l-154,2.8l1.1,60.2c0.2,12.2,10.4,22,22.6,21.8l109.7-2
		C259.2,259.3,269,249.1,268.8,236.9L268.8,236.9z"/>
	<path class="st17" d="M247.1,188.7c-7.3-8.8-7.6-23.7-0.5-33.3"/>
	<path class="st17" d="M228.3,189.4c-7.5-9-7.6-24.3-0.2-34.4"/>
	<path class="st2" d="M249.6,110.6c-0.6-4.9-2.5-9.4-5.3-12.5c-0.7-0.8-1.5-1.5-2.3-2.1c-2.7-2.1-5.8-2.9-8.8-2.5
		l0.1,0.6c2.9-0.4,5.8,0.4,8.4,2.3c3.9,3,6.6,8.3,7.3,14.2H249.6z"/>
	<path class="st18" d="M230.2,229l-60.7-16.4l6.4-30.5l-21.8-7.5l-3.1,11.2c0,0-8.1,25.8-8,34s10.4,12.8,10.3,13
		c-0.1,0.2,68.2,22.1,68.2,22.1c9.7,3.3,19.5,0.1,21.9-7.1C245.9,240.7,239.9,232.3,230.2,229L230.2,229z"/>
	<path class="st19" d="M160.9,147.7c-0.4,2.1-0.8,4.2-1.2,6.4c-2.6,1.1-4.6,2.8-5.4,5.2c-1.9,5.7,3.8,12.8,12.7,15.8
		s17.6,0.8,19.5-5c0.8-2.4,0.3-5-1.2-7.4c1.3-1.6,2.6-3.1,3.9-4.7c4.3,4.6,6.2,10,4.6,14.9c-2.8,8.6-15.6,12.1-28.6,7.7
		c-12.9-4.4-21.1-14.9-18.3-23.5C148.6,151.8,154,148.5,160.9,147.7L160.9,147.7z"/>
	<path class="st20" d="M241.7,101.2c-5.4-5.1-16.7-5.3-25.3-0.4c0,0-60.6,33.8-60.4,33.9c0.2,0.2-8.4,6.3-5.1,12.8
		c3.2,6.5,22.2,25.1,22.2,25.1l7.8,8.2l19.1-11.1L180.8,147l55.1-27.6C244.5,114.5,247.1,106.3,241.7,101.2L241.7,101.2z"/>
	<path class="st19" d="M219.5,173.5c-6.5-6.2-20.6-6.1-31.5,0.2s-14.5,16.4-8,22.5c3.6,3.5,9.7,4.9,16.2,4.4
		c-0.8-1.6-1.5-3.3-2.3-4.9c-3.1-0.2-5.8-1.2-7.5-2.9c-4.3-4.1-1.7-10.9,5.8-15.3c7.5-4.3,17.1-4.5,21.4-0.4
		c1.8,1.7,2.4,3.8,1.9,6.1c1.8,1.3,3.5,2.6,5.2,4C223.6,182.5,223.4,177.3,219.5,173.5L219.5,173.5z"/>
	<path class="st18" d="M122.9,209.8c-7.6-13.6-39.2-10.5-70.6,7l27.5,49.3C111.2,248.7,130.5,223.4,122.9,209.8
		L122.9,209.8z"/>
	<polygon class="st21" points="60.7,226.3 58.5,227.5 76.1,259.6 78.3,258.4 	"/>
	<path class="st20" d="M117.8,115.2c-10.4-12.3-41.1-3.4-68.5,19.8l37.8,44.6C114.5,156.3,128.3,127.5,117.8,115.2z"/>
	<polygon class="st21" points="58,141.5 56.2,143.1 80,170.9 81.8,169.4 	"/>
	<path class="st22" d="M428.8,144.4c-10.4,3-20,10-27.1,19.8l0.8,0.6c7-9.6,16.4-16.5,26.6-19.4
		c10.1-2.9,19.8-1.6,27.1,3.8l0.6-0.8C449.1,142.8,439.2,141.4,428.8,144.4L428.8,144.4z"/>
	<path class="st1" d="M391.8,78.5l-104.4,1.9c-6.5,0.1-11.6,5.5-11.5,11.9l2.9,162c0.1,6.5,5.5,11.6,11.9,11.5
		l104.4-1.9c6.5-0.1,11.6-5.5,11.5-11.9l-2.9-162C403.6,83.6,398.3,78.4,391.8,78.5L391.8,78.5z"/>
	<polygon class="st23" points="359.6,146.9 347,137.9 346.6,119.5 358.9,110.1 371.5,119.1 371.9,137.5 	"/>
	
		<ellipse transform="matrix(2.049958e-02 -0.9998 0.9998 2.049958e-02 293.2787 608.7625)" class="st24" cx="457.3" cy="154.7" rx="6.9" ry="5.4"/>
	
		<rect x="357.9" y="117.3" transform="matrix(0.9993 -3.849682e-02 3.849682e-02 0.9993 -4.708 13.909)" class="st25" width="1.8" height="23.8"/>
	
		<rect x="303.8" y="143.1" transform="matrix(0.9995 -3.160004e-02 3.160004e-02 0.9995 -5.3744 10.1347)" class="st26" width="28.3" height="64"/>
	<polygon class="st27" points="310.4,173.8 304.7,165.8 304.8,168.2 309.7,174.8 309.7,174.8 305.3,181.8 305.4,184.1 
		310.5,175.7 	"/>
	<polygon class="st28" points="347,137.9 359.6,146.9 371.9,137.5 371.7,128.8 346.8,129.5 	"/>
	<path class="st16" d="M278.8,254.3c0.1,6.5,5.5,11.6,11.9,11.5l104.4-1.9c6.5-0.1,11.6-5.5,11.5-11.9l-1.4-80l-127.8,4
		L278.8,254.3z"/>
	<polygon class="st26" points="373.1,207.6 360.5,198.6 348.2,208 348.5,226.4 361.2,235.4 373.4,225.9 	"/>
	
		<rect x="359.9" y="205.2" transform="matrix(0.9993 -3.789860e-02 3.789860e-02 0.9993 -7.9688 13.83)" class="st25" width="1.8" height="23.8"/>
	<polygon class="st29" points="348.5,226.4 361.2,235.4 373.4,225.9 373.3,216.2 348.4,216.5 	"/>
	<path class="st30" d="M408.8,73.8l-1.1-7.7c-0.1-0.7-0.1-1.4-0.2-2.1l0,0l-4.2,2.9l-1.2-1.3l5.9-4.1l0.9,1l1.1,7.6
		c0.1,0.7,0.2,1.4,0.2,2.1l0,0l4.5-3.2l1.1,1.3l-6.3,4.4L408.8,73.8z"/>
	<path class="st30" d="M421.3,55.2l-7.8-11.8c-0.7-1.1-1.3-2.1-1.9-3.3h-0.1l-5.6,8.3l-3.1-1.2l7.9-11.7l2.4,1l7.7,11.7
		c0.8,1.1,1.4,2.1,2,3.3h0.1l6.1-9l3.1,1.2L423.5,56L421.3,55.2L421.3,55.2z"/>
	<path class="st31" d="M435.6,34.9l-7-19.8c-0.6-1.8-1.1-3.5-1.7-5.4l-0.1-0.1l-7.1,9.7l-3.2-2.9l10.1-13.7l2.5,2.3
		l6.9,19.6c0.7,1.9,1.2,3.6,1.8,5.4l0.1,0.1l7.7-10.5l3.2,2.9L437.9,37L435.6,34.9L435.6,34.9z"/>
</g>
<polygon class="st4" points="276.7,136.8 266.8,136.9 268.4,216.8 278.3,216.6 "/>
<polygon class="st16" points="277.5,176.6 267.6,176.7 268.4,216.8 278.3,216.6 "/>
</svg>
